<?xml version="1.0" encoding="utf-8"?>
<!-- Generator: Adobe Illustrator 23.0.2, SVG Export Plug-In . SVG Version: 6.00 Build 0)  -->
<svg version="1.1" id="Layer_1" xmlns="http://www.w3.org/2000/svg" xmlns:xlink="http://www.w3.org/1999/xlink" x="0px" y="0px"
	 viewBox="0 0 345.8 360" style="enable-background:new 0 0 345.8 360;" xml:space="preserve">
<style type="text/css">
	.st0{fill:#241406;}
</style>
<title>logo_rocca</title>
<path class="st0" d="M13.2,231c3.6,0,8.8-0.2,12.2,3.9c1.8,2.5,2.8,5.5,2.6,8.6v3.7c0.1,2.8-0.9,5.6-2.6,7.8c-1,1.1-2.3,2-3.7,2.5
	l7.8,22.8H22l-6.9-21.4H11v21.4H3.9V231H13.2z M11,252.8h4c1.6,0.1,3.2-0.5,4.4-1.6c1.4-1.3,1.5-2.5,1.5-4.5v-3.5
	c0-1.7-0.5-3.3-1.6-4.5c-1.4-1.4-3.1-1.3-4.6-1.3H11V252.8z"/>
<path class="st0" d="M48.9,231v49.5h-7.1V231H48.9z"/>
<path class="st0" d="M80.1,243.4c0.1-1.6-0.3-3.2-1.2-4.5c-0.9-1.1-2.3-1.7-3.7-1.6c-1.3,0-2.5,0.4-3.5,1.4c-1.3,1.4-1.5,3.4-1.5,5
	c0,1.3,0.2,3.8,1.1,5.2c0.8,1.1,2,1.8,3.2,2.2l4.3,1.6c2.1,0.8,4.6,1.7,6.4,4.2c1.8,2.5,2.1,5.4,2.1,8.6v1.7c0,5-1.3,8.8-3.4,11
	c-1.8,1.9-5.1,3.3-9.2,3.3c-5,0-8.3-2.1-9.9-4.3c-2.3-3-2.3-7.7-2.3-8.3V267h7.1v1.3c-0.1,1.5,0.3,3.1,1.1,4.4
	c1,1.1,2.4,1.7,3.9,1.6c2.7,0,3.9-1.1,4.5-1.8c1.1-1.3,1.1-3.4,1.1-4.9v-1.8c0-1.7-0.2-3.8-1.1-5.1c-0.9-1-2.1-1.8-3.4-2.2l-5.2-1.8
	c-2.5-0.9-5.1-2.2-6.5-5.5c-0.9-2.3-1.2-4.8-1.1-7.2v-1.4c-0.1-3.4,1.2-6.8,3.7-9.2c2.3-2.1,5.4-3.2,8.6-3c7.1,0,11.8,4.6,11.8,12.8
	v1.6h-7.1V243.4z"/>
<path class="st0" d="M121.2,231v6.7h-8.8v42.8h-7.1v-42.8h-8.8V231H121.2z"/>
<path class="st0" d="M131.2,244.1c0-3.7,0.3-7.3,3.7-10.5c5-4.2,12.4-4.2,17.4,0c3.4,3.2,3.7,6.8,3.7,10.5v23.5
	c0,3.7-0.3,7.4-3.7,10.5c-5,4.3-12.4,4.3-17.4,0c-3.4-3.2-3.7-6.8-3.7-10.5V244.1z M148.9,243c0.2-1.6-0.4-3.2-1.5-4.3
	c-2.2-1.9-5.4-1.9-7.6,0c-1.1,1.2-1.6,2.7-1.5,4.3v25.6c-0.2,1.6,0.4,3.2,1.5,4.3c2.2,1.9,5.4,1.9,7.6,0c1.1-1.2,1.6-2.7,1.5-4.3
	V243z"/>
<path class="st0" d="M179.8,231c3.6,0,8.8-0.2,12.2,3.9c1.8,2.5,2.8,5.5,2.6,8.6v3.7c0,2.8-0.9,5.6-2.6,7.8c-1,1.1-2.3,2-3.7,2.5
	l7.8,22.8h-7.4l-6.9-21.4h-4.2v21.4h-7.1V231H179.8z M177.6,252.8h4c1.6,0.1,3.2-0.5,4.4-1.6c1.4-1.3,1.5-2.5,1.5-4.5v-3.5
	c0-1.7-0.5-3.3-1.6-4.5c-1.4-1.4-3.1-1.3-4.6-1.3h-3.7L177.6,252.8z"/>
<path class="st0" d="M224.9,280.6l-2.3-10.6h-9.1l-2.3,10.6h-7.1L215,231h6.2l10.8,49.5H224.9z M217.9,244.8l-3.7,18.8h7.5
	L217.9,244.8z"/>
<path class="st0" d="M250.4,231l11.8,31.1V231h7.1v49.5h-7.1l-11.8-31.1v31.1h-7.1V231H250.4z"/>
<path class="st0" d="M305.9,231v6.7h-8.8v42.8h-7.1v-42.8h-8.8V231H305.9z"/>
<path class="st0" d="M318,231h21v6.7H325v14.6h12.3v6.4H325v15.1h14.1v6.7H318V231z"/>
<path class="st0" d="M11,307v42.8h15v6.7H3.9V307H11z"/>
<path class="st0" d="M65.2,356.5l-2.3-10.6h-9l-2.3,10.6h-7.1L55.2,307h6.2l10.8,49.5L65.2,356.5z M58.2,320.8l-3.7,18.8H62
	L58.2,320.8z"/>
<path class="st0" d="M136.2,307c3.6,0,8.8-0.2,12.2,3.9c1.8,2.5,2.8,5.5,2.6,8.6v3.7c0,2.8-0.9,5.6-2.6,7.8c-1,1.1-2.3,2-3.7,2.5
	l7.8,22.8h-7.4l-6.9-21.4H134v21.4h-7V307H136.2z M134,328.8h4c1.6,0.1,3.2-0.5,4.4-1.6c1.4-1.3,1.5-2.5,1.5-4.4v-3.5
	c0-1.7-0.5-3.3-1.6-4.5c-1.4-1.4-3.1-1.3-4.6-1.3H134V328.8z"/>
<path class="st0" d="M174.8,320c0-3.7,0.3-7.4,3.7-10.5c5-4.2,12.4-4.2,17.4,0c3.4,3.2,3.7,6.8,3.7,10.5v23.5
	c0,3.7-0.3,7.4-3.7,10.5c-5,4.2-12.4,4.2-17.4,0c-3.4-3.2-3.7-6.8-3.7-10.5V320z M192.5,319c0.2-1.6-0.4-3.2-1.5-4.3
	c-2.2-1.9-5.4-1.9-7.6,0c-1.1,1.2-1.6,2.7-1.5,4.3v25.6c-0.2,1.6,0.4,3.2,1.5,4.3c2.2,1.9,5.4,1.9,7.6,0c1.1-1.2,1.6-2.7,1.5-4.3
	V319z"/>
<path class="st0" d="M240.7,318.3c0-1.1-0.3-2.3-0.9-3.2c-0.8-1.2-2.2-1.8-3.7-1.8c-1.4-0.1-2.8,0.5-3.7,1.6
	c-1.1,1.4-1.2,3.2-1.2,4.9v24.4c0,1.6,0,3.1,0.9,4.4c0.8,1.2,2.2,1.8,3.6,1.8c1.5,0.1,3-0.5,4-1.7c0.7-1.2,1.1-2.6,1-4v-1.8h7.1v2.1
	c0,4.9-1.7,7.7-3,9c-1.5,1.6-4.4,3.3-9.3,3.3c-4.7,0-7.4-1.9-8.9-3.7c-2.5-3-2.5-6.4-2.5-8.9v-25.7c0-3.3,0.4-6.9,3.6-9.7
	c2.3-1.9,5.1-2.9,8.1-2.9c3.1,0,6.2,1.1,8.6,3.2c2.1,2.2,3.2,5.2,3.2,8.2v3.4h-6.9L240.7,318.3z"/>
<path class="st0" d="M288.2,318.3c0-1.1-0.3-2.3-0.9-3.2c-0.8-1.2-2.2-1.8-3.7-1.8c-1.4-0.1-2.8,0.5-3.7,1.6
	c-1.1,1.4-1.2,3.2-1.2,4.9v24.4c0,1.6,0,3.1,0.9,4.4c0.8,1.2,2.2,1.8,3.6,1.8c1.5,0.1,3-0.6,4-1.7c0.8-1.2,1.1-2.6,1-4v-1.8h7.1v2.1
	c0,4.9-1.7,7.7-3,9c-1.5,1.6-4.4,3.3-9.3,3.3c-4.7,0-7.4-1.9-8.9-3.7c-2.5-3-2.5-6.4-2.5-8.9v-25.7c0-3.3,0.4-6.9,3.6-9.7
	c2.3-1.9,5.1-2.9,8.1-2.9c3.1,0,6.2,1.1,8.6,3.2c2.1,2.2,3.2,5.2,3.2,8.2v3.4h-6.9L288.2,318.3z"/>
<path class="st0" d="M334.8,356.5l-2.3-10.6h-9.1l-2.3,10.6H314l10.8-49.5h6.2l10.8,49.5L334.8,356.5z M327.8,320.8l-3.7,18.8h7.5
	L327.8,320.8z"/>
<path class="st0" d="M314.8,219.9c-5.2-6.8-9.8-9.9-17.2-14c-3.4-1.9-5.8-4.9-9-6.8c-4.6-2.8-9.8-2.9-14.1-6.7
	c-9.6-8.4-19.8-23-34.6-18.5c-0.8,0.2-0.5,1.5,0.4,1.3c16.3-5,26.9,15.4,38.9,21.8c12.1,6.5,25.7,12.3,34.5,23.6
	C314.2,221.3,315.3,220.6,314.8,219.9L314.8,219.9z"/>
<path class="st0" d="M248.9,178c-5-1.3-8.8-4.4-13.9-5.5c-7.5-1.6-15.7-1.7-23.3-2.4c-6.9-0.7-13.8-1.8-20.7-1.6
	c-3.8,0.1-7.7,1.1-11.5,1c-3.5-0.1-7.4-2.2-10.8-1.9c-6.7,0.5-10,5.5-13.7,10.5c-4.9,6.7-10.3,13-16.1,19
	c-5.1,5.2-10.3,14.2-15.8,18.3c-0.7,0.5,0,1.6,0.7,1.1c8.1-6,13.6-15.6,20.5-23c2.9-3.1,5.6-6.3,8.2-9.7c1.9-2.5,3.6-5.5,5.8-7.9
	c4.8-5.1,10.1-5.4,16.5-5.5c10.8-0.2,21.3-0.5,32.1,0.5c7.2,0.7,14.6,1.1,21.8,2.2c7.3,1.1,13.1,4.4,20,6.2c0.3,0.1,0.7-0.1,0.8-0.5
	C249.5,178.4,249.3,178.1,248.9,178L248.9,178z"/>
<path class="st0" d="M160.8,170.2c-21.5,3.6-36.7-17.8-59.2-14.8c-13.6,1.9-19.5,13.4-24.4,25c-0.3,0.8,0.9,1.1,1.3,0.4
	c4.7-11.1,9.9-21.7,23.3-23.8c10-1.6,20.6,1.6,29.3,6.4c10.6,5.8,17.6,10.2,30.1,8.1C162,171.4,161.6,170.1,160.8,170.2z"/>
<path class="st0" d="M97.3,155.9c-14.4-1.9-28.1,0.1-37.4,11.6c-9.8,12.2-19.3,24.3-29.1,36.6c-0.5,0.7,0.4,1.6,0.9,0.9
	c8-9.9,16.2-18.5,23.7-28.4c2.6-3.6,5.3-7,8.3-10.2c9.4-9.6,20.7-10.9,33.6-9.2C98.1,157.3,98.1,156,97.3,155.9L97.3,155.9z"/>
<path class="st0" d="M250.2,173.1c-7.4-17.8-12.3-36.6-14.5-55.8c0-0.4-0.3-0.7-0.7-0.7c-8.2,0.5-16.5-0.9-24.1-4.1
	c-0.4-0.2-0.8,0.3-0.8,0.6c-0.3,7.4-18.1,2.9-22.9,2.7c-0.4,0-0.6,0.3-0.6,0.6c0.1,10.1-0.2,20.4,0.5,30.6
	c0.5,8.5,4.1,14.3,6.9,22.4c0.3,0.8,1.5,0.4,1.3-0.3c-1.8-5.2-4.9-10.3-6.1-15.6c-1.3-5.7-0.8-12.3-0.9-18.1
	c0-2.7-1.3-11.7-0.2-14.2c3.3-7.1,17-2.8,22.4-2c0.4,0.1,0.7-0.1,0.8-0.5c0,0,0-0.1,0-0.1c0.2-6,7.3-1.8,11.4-1.1
	c9.4,1.5,11.7,1.3,13.3,11c2.6,15.4,7,30.5,13,44.9C249.2,174.3,250.5,173.9,250.2,173.1L250.2,173.1z"/>
<path class="st0" d="M187.4,116.4l-0.6-6.2c0-0.4-0.3-0.6-0.7-0.7l-28.7-1.4c-0.4,0-0.6,0.3-0.7,0.7c-1,8.9-16.6,5.3-23.2,5.2
	c-9.4-0.2-18.9-0.2-28.3-0.1c-0.3,0-0.5,0.2-0.6,0.5c-2.3,13.7-3.6,27.6-3.8,41.5c0,0.4,0.4,0.6,0.7,0.6c0.3,0,0.5-0.3,0.6-0.6
	c0.1-6.2,0.3-12.3,0.8-18.4c0.7-9.1-0.5-20,10.1-22.3c13.1-2.8,30.4,0.3,43.7,0.9c0.4,0,0.6-0.3,0.7-0.7c1-9.2,27.9-7.7,28.7,1.2
	C186.2,117.3,187.5,117.3,187.4,116.4L187.4,116.4z"/>
<path class="st0" d="M227,116c-0.6-10.5-0.9-21-0.9-31.6c0-0.4-0.3-0.6-0.7-0.7l-53-0.9c-0.4,0-0.6,0.3-0.6,0.7
	c-0.9,8.2-1.4,16.5-1.3,24.7c0,0.4,0.3,0.7,0.7,0.7c0.4,0,0.7-0.3,0.7-0.7c0-6.3-2.4-21.2,5.1-24c2.7-1,10.3,0.2,13.2,0.2l13.2,0.2
	c4.3,0.1,9.1-0.6,13.3,0.2L221,85c3.5,1.4,4.8,3.9,3.8,7.3c1.6,7.1,0.5,16.4,0.9,23.7C225.7,116.8,227.1,116.9,227,116L227,116z"/>
<path class="st0" d="M228.2,85.3c-10.2-5.1-19.1-12.5-26-21.7c-0.2-0.3-0.6-0.4-0.9-0.2l-31.6,20.2c-0.7,0.5,0,1.6,0.7,1.1
	l17.6-11.2c3.9-2.5,10.3-8.9,15.3-6.3c3.8,1.9,7.4,8.1,11,11c4.1,3.2,8.6,6,13.3,8.3C228.3,86.8,228.9,85.7,228.2,85.3L228.2,85.3z"
	/>
<path class="st0" d="M99.5,108c0.1-2.7-0.3-6.7,0.5-9.2c1.2-3.5,6.1-3.5,9.1-3.4c3.4,0.2,5.3,0.3,6.4,4.5c0.2,1.4,0.3,2.8,0.3,4.2
	c0.2,3.3,0.1,6.5,0,9.8c0,0.8,1.3,0.8,1.3,0c0.2-5.1,0.4-10.5-0.4-15.5c-0.6-3.4-3.2-3.8-6.3-4.2c-2.9-0.3-9-0.3-11.2,2.1
	c-0.7,0.7-0.5,2.3-0.5,3.2l-0.5,8.6C98.2,108.8,99.4,108.8,99.5,108z"/>
<path class="st0" d="M116.3,96c-2.6-6.6-4.3-13.5-5-20.6c-0.5-4.2-0.5-8.3-2.8-12c-0.2-0.3-0.6-0.4-0.9-0.2
	c-0.1,0.1-0.2,0.2-0.3,0.4c-3.7,10.6-6.1,21.7-9,32.6c-0.1,0.3,0.1,0.7,0.5,0.8c0.3,0.1,0.7-0.1,0.8-0.5l0,0
	c1.4-5.3,2.7-10.6,4.1-15.9c0.7-2.8,1.4-5.6,2.2-8.4c0.6-2,0.7-6.4,2.9-5.3c1.5,0.7,1.7,12.7,2,14.7c0.9,5,2.3,10,4.3,14.7
	C115.3,97.1,116.6,96.8,116.3,96L116.3,96z"/>
<path class="st0" d="M115.9,95.6c-0.1-2.7-0.2-5.4-0.1-8.1c0.1-5,1.3-7.7,6-10.1c6.7-3.5,12.1-6.4,19.8-5.4l-0.3-1.2
	c-3.7,1.6-5.9,3.7-8.8,6.3c-3.9,3.5-10.9,2.4-15.9,2.4c-0.4,0-0.6,0.4-0.6,0.7c0,0.3,0.3,0.5,0.6,0.6c3.1,0,6.3-0.1,9.4-0.2
	c1.7-0.1,3.9,0.2,5.5-0.7c1-0.5,1.6-1.7,2.4-2.5c2.2-2.4,5-4.3,8-5.5c0.7-0.3,0.2-1.1-0.3-1.2c-8.9-1.1-16.1,2.5-23.6,7.2
	c-5.4,3.4-3.6,12.3-3.4,17.7C114.6,96.4,115.9,96.4,115.9,95.6L115.9,95.6z"/>
<path class="st0" d="M140.5,71.6c-1,14.2-1.8,28.4-0.1,42.6c0.1,0.8,1.4,0.8,1.3,0c-1.6-14.2-0.9-28.4,0.1-42.6
	C141.8,70.8,140.5,70.8,140.5,71.6z"/>
<path class="st0" d="M130.2,79.3c0.1,11.5,0.4,23,1,34.5c0,0.8,1.4,0.8,1.3,0c-0.6-11.5-1-23-1-34.5c0-0.4-0.4-0.6-0.7-0.6
	C130.5,78.8,130.3,79,130.2,79.3L130.2,79.3z"/>
<path class="st0" d="M152.7,114.4c-8.7-0.4-17.4-0.7-26.1-1c-5.8-0.2-11.9-1.3-17.3,1.2c-0.7,0.4-0.1,1.5,0.7,1.1
	c6.4-3.1,16.3-1.1,23.2-0.8c6.5,0.2,13.1,0.5,19.6,0.8C153.6,115.7,153.6,114.4,152.7,114.4L152.7,114.4z"/>
<path class="st0" d="M155.3,114.2c-0.5,18.9-0.4,37.7,0.3,56.5c0,0.8,1.3,0.8,1.3,0c-0.7-18.8-0.8-37.7-0.3-56.5
	c0-0.4-0.4-0.6-0.7-0.6C155.5,113.7,155.3,113.9,155.3,114.2z"/>
<path class="st0" d="M127.6,72.1c0.2-7.7-2.1-23.3,2.4-29.6c1.4-1.9,7.1-6.6,9.8-5.7c5.2,1.6,3.8,8.5,3.9,12.6
	c0.3,10-0.2,20.1,0.1,30.1c0.4,11.8,3.3,23.5,1.1,35.3c-0.1,0.8,1.1,1.2,1.3,0.3c2.2-11.9-0.6-23.7-1.1-35.7c-0.6-15,0.4-30-1.2-45
	c0-0.4-0.3-0.7-0.7-0.7c-0.1,0-0.2,0-0.3,0.1c-5,2.4-10.2,4.4-15.5,6.1c-0.3,0.1-0.5,0.3-0.5,0.6l-0.6,31.5c0,0.4,0.4,0.6,0.7,0.6
	C127.3,72.6,127.5,72.4,127.6,72.1L127.6,72.1z"/>
<path class="st0" d="M143.8,35.5c5.9-0.1,7.7,0.7,8.5,6.9c0.4,2.7-0.2,6-0.3,8.7c-0.2,6.8-0.2,13.6-0.2,20.3c0,0.4,0.4,0.6,0.7,0.6
	c0.3,0,0.5-0.3,0.6-0.6c-0.1-11.1,1.2-22.4,0.7-33.4c-0.2-5.6-4.8-3.9-10.1-3.8c-0.4,0-0.6,0.4-0.6,0.7
	C143.3,35.2,143.5,35.5,143.8,35.5z"/>
<path class="st0" d="M152.8,33.7c-7.5-4.5-11.1-12.3-14.5-20.1c-0.2-0.3-0.6-0.4-0.9-0.2c-0.1,0.1-0.2,0.1-0.2,0.2
	c-4.5,8.6-8.4,17.6-11.4,26.9c-0.3,0.8,1,1.1,1.3,0.3c1.8-5.5,3.8-10.9,6.2-16.1c1-2.4,2.1-4.7,3.3-7c1.5-2.6,1.2-2.1,2.3,0.2
	c3.1,6.7,6.9,12.9,13.3,16.9c0.3,0.2,0.7,0,0.9-0.3C153.1,34.2,153,33.9,152.8,33.7L152.8,33.7z"/>
<path class="st0" d="M160.3,51.9c-1.8,10.1-6.7,17.5-12.8,25.5c-0.3,0.4,0.1,0.9,0.6,1c4.8,0.5,14.5,2.7,18.5-0.9
	c2.5-2.3,4.4-8,6-10.9l7.8-14.4c0.2-0.3,0.1-0.7-0.2-0.9c-0.1-0.1-0.2-0.1-0.3-0.1l-18,0.4c-0.4,0-0.6,0.4-0.6,0.7
	c0,0.3,0.3,0.5,0.6,0.6l11.2-0.3c1.4,0,4-0.7,4.7,0.5c0.8,1.2-1.5,3.8-2.1,5l-6,11.1c-0.9,1.7-1.7,4.1-3,5.5c-1.9,2.2-4.4,2.7-7.4,3
	c-1.7,0.1-9.1,0.7-9.4-1.1c-0.2-1.1,4.1-5.4,4.8-6.5c3.5-5.4,5.9-11.4,6.9-17.8C161.6,51.4,160.4,51.1,160.3,51.9L160.3,51.9z"/>
<path class="st0" d="M148.9,78c-0.8,12.3,0,24.6,0.6,36.9c0.1,0.8,1.4,0.8,1.3,0c-0.7-12.3-1.5-24.6-0.6-36.9
	C150.3,77.2,149,77.2,148.9,78z"/>
<path class="st0" d="M166,76c-0.4,10.6-1.1,21.3-0.3,32c0.1,0.8,1.4,0.8,1.3,0c-0.9-10.6-0.1-21.3,0.3-32
	C167.3,75.2,166,75.2,166,76z"/>
<path class="st0" d="M178.7,52.8c0,8.7-0.4,17.4-1.4,26.1c-0.1,0.8,1.2,0.8,1.3,0c0.9-8.7,1.4-17.4,1.4-26.1c0-0.4-0.4-0.6-0.7-0.6
	C179,52.3,178.7,52.5,178.7,52.8L178.7,52.8z"/>
<path class="st0" d="M218.9,79.6l0.1-18c0-2.4,1.3-8.5-0.2-10.3c-1.2-1.4-4.9-0.7-6.3-0.7c-6,0-12,0.4-18,1c-0.4,0-0.6,0.3-0.6,0.7
	l-1.4,17c-0.1,0.8,1.2,0.8,1.3,0l0.7-8.5c0.1-1.3-0.1-5.2,0.5-6.3c1.8-3.4,12-2.4,15.3-2.5c2.9-0.1,6.1-0.3,7.5,2.9
	c0.9,2.1-0.1,6.7-0.1,9l-0.1,15.8c0,0.4,0.4,0.6,0.7,0.6C218.6,80.2,218.9,80,218.9,79.6L218.9,79.6z"/>
<path class="st0" d="M218.4,50.4c-4.6-5-10.4-10.1-12-16.9c-0.1-0.4-0.5-0.6-0.8-0.5c-0.2,0-0.3,0.2-0.4,0.3
	c-3.5,6.3-7.1,12.5-11,18.5c-0.5,0.7,0.7,1.4,1.1,0.7c3.9-6,7.6-12.2,11-18.5l-1.2-0.2c1.7,7.1,7.5,12.3,12.3,17.5
	C218.1,51.9,219,51,218.4,50.4L218.4,50.4z"/>
<path class="st0" d="M178.5,51.3c0.2-3.2,0.4-6.4,0.4-9.7c0-1.4-0.5-3.3,0.9-4.2c0.6-0.4,4.1,0,4.8,0c3,0,6.7-0.6,9.7-0.1
	c1.8,0.3,2.8,0.2,3.5,2.4c0.5,1.6,0.2,3.8,0.4,5.4c0.1,0.8,1.4,0.8,1.3,0c-0.1-2.3,0.9-8.2-1.8-9.1c-2.3-0.7-6.5,0-8.9,0l-10.5,0.1
	c-0.4,0-0.6,0.3-0.6,0.6c0.1,4.8,0,9.7-0.3,14.5C177.1,52.1,178.4,52.1,178.5,51.3L178.5,51.3z"/>
<path class="st0" d="M165.2,51.8c0.1-1.2-0.1-3.4,0.5-4.4c0.8-1.1,2.7-0.7,3.9-0.7c2.7,0,5.4,0.1,8,0.2c0.8,0,0.8-1.3,0-1.3
	c-2.2-0.1-4.3-0.2-6.5-0.2c-1.5,0-4.3-0.5-5.7,0.1c-1.7,0.7-1.5,4.9-1.5,6.4C163.9,52.7,165.1,52.7,165.2,51.8L165.2,51.8z"/>
<path class="st0" d="M166.1,46.5c1.6-3.6,4.5-6.2,6.1-9.7l-1,0.1c1.2,1.4,1.6,3.7,2.5,5.3c0.8,1.5,1.8,2.8,3,4
	c0.6,0.6,1.5-0.3,0.9-0.9c-1.6-1.5-2.8-3.4-3.6-5.4c-0.4-1.4-1.1-2.7-1.9-3.9c-0.3-0.2-0.7-0.2-0.9,0c0,0,0,0.1-0.1,0.1
	c-1.6,3.5-4.5,6.1-6.1,9.7C164.7,46.6,165.9,47.2,166.1,46.5L166.1,46.5z"/>
<path class="st0" d="M198.8,36.7c-4.1-10.9-7.3-22.3-10.4-33.5c-0.2-0.6-1.1-0.7-1.3,0c-2.1,11.4-5.2,22.6-9.4,33.4
	c-0.3,0.8,1,1.1,1.3,0.3c1-2.5,9.3-30.9,8.8-30.9c0.6,0,4.9,16.1,5.2,17.1c1.5,4.6,2.8,9.3,4.5,13.9
	C197.8,37.8,199.1,37.5,198.8,36.7L198.8,36.7z"/>
<path class="st0" d="M209.7,118.4c-1.3,11.3,2,21.6,5.4,32.2c1.2,3.9,2.1,8.2,3.9,11.8c1.5,3.1,6.1,6.2,7.1,9
	c0.3,0.8,1.6,0.4,1.3-0.3c-0.8-2.2-1.2-1.7-2.5-3.5c-3.5-4.8-6.3-10.1-8.1-15.8c-3.5-11-7.2-21.7-5.9-33.4
	C211.1,117.6,209.8,117.6,209.7,118.4L209.7,118.4z"/>
<path class="st0" d="M91.3,116.5c-2,6.1-2.5,11.6-3,17.9c-0.8,7.3-2.3,14.5-4.7,21.5c-0.2,0.8,1,1.1,1.3,0.3
	c1.8-5.2,3.1-10.6,4.1-16.1c1.2-7.9,1-15.6,3.6-23.3C92.8,116,91.6,115.7,91.3,116.5L91.3,116.5z"/>
<path class="st0" d="M92.7,116.6c1.2-1.9,3.9-1.5,5.9-1.5c1.7,0,4.4-0.2,5.8,0.6c0.3,0.2,1.1,0,1.2,0.1c-1.8-1.1-4.2-0.8-6.3-0.9
	c-2.5-0.1-6.4-1-7.9,1.6C91.5,116.5,92.6,116.8,92.7,116.6z"/>
<path class="st0" d="M92.1,118.3c2.2-4.1,8.4-2.7,12.2-2.5c0.7,0,0.3-1.1-0.2-1.1c-4.1-0.2-10.5-1.7-12.9,2.7
	C91,118,91.8,118.9,92.1,118.3z"/>
<path class="st0" d="M92.8,116.1c2.4-2.8,5.5-5.7,7.3-9l-1.4,0.3c0.9,1.5,1.8,3,2.6,4.5c0.5,1.2,1.3,2.3,2.3,3.1
	c0.3,0.2,1.5-0.4,1.4-0.5c-2.2-1.5-3.4-5.3-4.8-7.6c-0.2-0.3-1.3,0.1-1.4,0.3c-1.7,3.3-4.9,6.1-7.3,9
	C91.8,116.4,92.3,116.3,92.8,116.1z"/>
</svg>
