<svg xmlns="http://www.w3.org/2000/svg" width="117mm" height="11mm" viewBox="0 0 331.65 31.18"><defs><style>.cls-1{fill:#22160d;}</style></defs><title>logo_la</title><g id="Layer_2" data-name="Layer 2"><path class="cls-1" d="M7.25,2.61c1.89,0,4.64-.11,6.38,2A7.11,7.11,0,0,1,15,9.18v2a6.51,6.51,0,0,1-1.37,4.12,5.18,5.18,0,0,1-2,1.33l4.08,12H11.89l-3.6-11.2H6.1v11.2H2.39v-26ZM6.1,14H8.22a3.14,3.14,0,0,0,2.3-.85,2.68,2.68,0,0,0,.77-2.34V9a3.46,3.46,0,0,0-.85-2.37A3,3,0,0,0,8,6H6.1Z"/><path class="cls-1" d="M26.31,2.61v26h-3.7v-26Z"/><path class="cls-1" d="M43,9.1a3.9,3.9,0,0,0-.63-2.37,2.34,2.34,0,0,0-2-.85,2.48,2.48,0,0,0-1.81.7,3.65,3.65,0,0,0-.78,2.63,5.53,5.53,0,0,0,.59,2.71,3.41,3.41,0,0,0,1.71,1.15l2.26.82a6.39,6.39,0,0,1,3.37,2.22A7,7,0,0,1,46.9,20.6v.89c0,2.63-.71,4.63-1.78,5.74a6.69,6.69,0,0,1-4.82,1.71,6.19,6.19,0,0,1-5.2-2.26,8.09,8.09,0,0,1-1.18-4.38v-.85h3.71v.7a3.92,3.92,0,0,0,.59,2.3,2.55,2.55,0,0,0,2,.86,2.77,2.77,0,0,0,2.34-.93,4.27,4.27,0,0,0,.59-2.56v-1a4.9,4.9,0,0,0-.59-2.67A3.87,3.87,0,0,0,40.82,17l-2.71-1a5.17,5.17,0,0,1-3.41-2.89,9.27,9.27,0,0,1-.56-3.78V8.66a6.55,6.55,0,0,1,1.93-4.82,6.13,6.13,0,0,1,4.49-1.6c3.7,0,6.19,2.41,6.19,6.71v.86H43Z"/><path class="cls-1" d="M65,2.61V6.14H60.4V28.57H56.69V6.14h-4.6V2.61Z"/><path class="cls-1" d="M70.6,9.44c0-2,.14-3.86,1.92-5.53a7.07,7.07,0,0,1,9.13,0c1.78,1.67,1.92,3.56,1.92,5.53V21.75c0,2-.14,3.85-1.92,5.52a7.07,7.07,0,0,1-9.13,0c-1.78-1.67-1.92-3.56-1.92-5.52Zm9.27-.56a2.89,2.89,0,0,0-.78-2.26,3.09,3.09,0,0,0-4,0,2.89,2.89,0,0,0-.78,2.26V22.3a2.89,2.89,0,0,0,.78,2.26,3.06,3.06,0,0,0,4,0,2.89,2.89,0,0,0,.78-2.26Z"/><path class="cls-1" d="M96.44,2.61c1.9,0,4.64-.11,6.38,2a7.11,7.11,0,0,1,1.37,4.53v2a6.51,6.51,0,0,1-1.37,4.12,5.15,5.15,0,0,1-2,1.33l4.08,12h-3.86l-3.6-11.2H95.29v11.2h-3.7v-26ZM95.29,14h2.12a3.14,3.14,0,0,0,2.3-.85,2.68,2.68,0,0,0,.78-2.34V9a3.41,3.41,0,0,0-.86-2.37A3,3,0,0,0,97.22,6H95.29Z"/><path class="cls-1" d="M120.47,28.57,119.25,23h-4.74l-1.23,5.56h-3.71l5.68-26h3.26l5.67,26ZM116.8,9.84l-1.92,9.87h3.93Z"/><path class="cls-1" d="M134.2,2.61l6.19,16.32V2.61h3.71v26h-3.71L134.2,12.25V28.57h-3.71v-26Z"/><path class="cls-1" d="M163.68,2.61V6.14h-4.6V28.57h-3.71V6.14h-4.59V2.61Z"/><path class="cls-1" d="M170.36,2.61h11V6.14h-7.3v7.63h6.45v3.34h-6.45v7.94h7.41v3.52H170.36Z"/><path class="cls-1" d="M202.4,13V26.46h4.72v2.11h-7V13Z"/><path class="cls-1" d="M216.91,28.57l-.74-3.34h-2.84l-.74,3.34h-2.22L213.77,13h2l3.4,15.57ZM214.7,17.33l-1.15,5.92h2.36Z"/><path class="cls-1" d="M241.48,2.61c1.89,0,4.63-.11,6.38,2a7.11,7.11,0,0,1,1.37,4.53v2a6.51,6.51,0,0,1-1.37,4.12,5.18,5.18,0,0,1-2,1.33l4.08,12h-3.86l-3.59-11.2h-2.19v11.2h-3.71v-26ZM240.33,14h2.11a3.11,3.11,0,0,0,2.3-.85,2.68,2.68,0,0,0,.78-2.34V9a3.46,3.46,0,0,0-.85-2.37A3,3,0,0,0,242.26,6h-1.93Z"/><path class="cls-1" d="M256.68,9.44c0-2,.15-3.86,1.93-5.53a7.06,7.06,0,0,1,9.12,0c1.78,1.67,1.93,3.56,1.93,5.53V21.75c0,2-.15,3.85-1.93,5.52a7.06,7.06,0,0,1-9.12,0c-1.78-1.67-1.93-3.56-1.93-5.52ZM266,8.88a2.88,2.88,0,0,0-.77-2.26,3.09,3.09,0,0,0-4,0,2.89,2.89,0,0,0-.78,2.26V22.3a2.89,2.89,0,0,0,.78,2.26,3.06,3.06,0,0,0,4,0A2.88,2.88,0,0,0,266,22.3Z"/><path class="cls-1" d="M286.24,8.51a3.29,3.29,0,0,0-.48-1.71,2.26,2.26,0,0,0-1.93-.92,2.37,2.37,0,0,0-1.93.85,3.92,3.92,0,0,0-.63,2.56V22.08a3.72,3.72,0,0,0,.48,2.3,2.26,2.26,0,0,0,1.9.93,2.59,2.59,0,0,0,2.07-.89,3.47,3.47,0,0,0,.52-2.12v-.93H290v1.08a6.75,6.75,0,0,1-1.56,4.75,6.37,6.37,0,0,1-4.86,1.74,5.77,5.77,0,0,1-4.67-2,6.58,6.58,0,0,1-1.3-4.67V8.84a6.23,6.23,0,0,1,1.9-5.08,6.56,6.56,0,0,1,4.22-1.52,6.81,6.81,0,0,1,4.49,1.67,6.15,6.15,0,0,1,1.67,4.3V10h-3.6Z"/><path class="cls-1" d="M306.12,8.51a3.29,3.29,0,0,0-.48-1.71,2.26,2.26,0,0,0-1.93-.92,2.36,2.36,0,0,0-1.93.85,3.92,3.92,0,0,0-.63,2.56V22.08a3.72,3.72,0,0,0,.48,2.3,2.26,2.26,0,0,0,1.89.93,2.59,2.59,0,0,0,2.08-.89,3.47,3.47,0,0,0,.52-2.12v-.93h3.71v1.08a6.75,6.75,0,0,1-1.56,4.75,6.37,6.37,0,0,1-4.86,1.74,5.75,5.75,0,0,1-4.67-2,6.58,6.58,0,0,1-1.3-4.67V8.84a6.22,6.22,0,0,1,1.89-5.08,6.59,6.59,0,0,1,4.23-1.52,6.83,6.83,0,0,1,4.49,1.67,6.2,6.2,0,0,1,1.67,4.3V10h-3.6Z"/><path class="cls-1" d="M325.55,28.57,324.33,23h-4.75l-1.22,5.56h-3.71l5.67-26h3.27l5.67,26ZM321.88,9.84,320,19.71h3.93Z"/><rect class="cls-1" x="200.2" y="2.9" width="18.75" height="1.82"/></g></svg>