<svg xmlns="http://www.w3.org/2000/svg" width="122mm" height="127mm" viewBox="0 0 345.83 360"><defs><style>.cls-1{fill:#fff;}</style></defs><title>logo_rocca_hvid</title><g id="Layer_2" data-name="Layer 2"><path class="cls-1" d="M13.21,231.05c3.6,0,8.84-.21,12.16,3.89A13.47,13.47,0,0,1,28,243.57v3.75a12.4,12.4,0,0,1-2.62,7.85,9.74,9.74,0,0,1-3.75,2.54l7.78,22.85H22.05L15.19,259.2H11v21.36H3.94V231.05ZM11,252.83h4a6,6,0,0,0,4.38-1.62c1.42-1.35,1.49-2.55,1.49-4.46v-3.54a6.58,6.58,0,0,0-1.63-4.52c-1.41-1.42-3.11-1.28-4.6-1.28H11Z"/><path class="cls-1" d="M48.86,231.05v49.51H41.79V231.05Z"/><path class="cls-1" d="M80.06,243.43a7.42,7.42,0,0,0-1.2-4.53,4.48,4.48,0,0,0-3.75-1.63,4.75,4.75,0,0,0-3.47,1.35c-1.34,1.41-1.48,3.39-1.48,5,0,1.34.21,3.82,1.13,5.16A6.51,6.51,0,0,0,74.54,251l4.32,1.56c2.12.78,4.59,1.7,6.43,4.24s2.12,5.45,2.12,8.56v1.7c0,5-1.34,8.84-3.39,11-1.84,1.91-5.09,3.26-9.2,3.26-5,0-8.27-2.06-9.9-4.32-2.26-3-2.26-7.71-2.26-8.35V267h7.07v1.34a7.58,7.58,0,0,0,1.13,4.39,4.86,4.86,0,0,0,3.89,1.62c2.69,0,3.89-1.06,4.46-1.76,1.06-1.35,1.13-3.4,1.13-4.88v-1.84c0-1.7-.21-3.82-1.13-5.1a7.33,7.33,0,0,0-3.4-2.19l-5.16-1.84c-2.55-.92-5.09-2.19-6.51-5.51A17.76,17.76,0,0,1,63.08,244v-1.41a12.57,12.57,0,0,1,3.68-9.2,11.74,11.74,0,0,1,8.56-3c7.07,0,11.81,4.6,11.81,12.8v1.63H80.06Z"/><path class="cls-1" d="M121.23,231.05v6.72h-8.77v42.79h-7.07V237.77H96.62v-6.72Z"/><path class="cls-1" d="M131.21,244.06c0-3.75.29-7.35,3.68-10.54a13.49,13.49,0,0,1,17.4,0c3.39,3.19,3.68,6.79,3.68,10.54v23.48c0,3.75-.29,7.36-3.68,10.54a13.46,13.46,0,0,1-17.4,0c-3.39-3.18-3.68-6.79-3.68-10.54ZM148.89,243a5.51,5.51,0,0,0-1.48-4.31,5.85,5.85,0,0,0-7.64,0,5.51,5.51,0,0,0-1.48,4.31v25.6a5.52,5.52,0,0,0,1.48,4.32,5.88,5.88,0,0,0,7.64,0,5.52,5.52,0,0,0,1.48-4.32Z"/><path class="cls-1" d="M179.81,231.05c3.61,0,8.84-.21,12.17,3.89a13.53,13.53,0,0,1,2.61,8.63v3.75a12.46,12.46,0,0,1-2.61,7.85,9.89,9.89,0,0,1-3.75,2.54L196,280.56h-7.36l-6.86-21.36h-4.17v21.36h-7.07V231.05Zm-2.19,21.78h4a6,6,0,0,0,4.38-1.62c1.42-1.35,1.49-2.55,1.49-4.46v-3.54a6.58,6.58,0,0,0-1.63-4.52c-1.41-1.42-3.11-1.28-4.59-1.28h-3.68Z"/><path class="cls-1" d="M224.94,280.56,222.61,270h-9.06l-2.33,10.61h-7.07L215,231.05h6.23L232,280.56Zm-7-35.72-3.68,18.81h7.5Z"/><path class="cls-1" d="M250.41,231.05l11.81,31.12V231.05h7.08v49.51h-7.08l-11.81-31.12v31.12h-7.07V231.05Z"/><path class="cls-1" d="M305.94,231.05v6.72h-8.77v42.79H290.1V237.77h-8.77v-6.72Z"/><path class="cls-1" d="M318,231.05h21v6.72H325.05v14.57h12.31v6.36H325.05v15.14H339.2v6.72H318Z"/><path class="cls-1" d="M11,307v42.79H26v6.71H3.94V307Z"/><path class="cls-1" d="M65.2,356.54l-2.33-10.6h-9l-2.34,10.6H44.41L55.23,307h6.23l10.82,49.5Zm-7-35.71-3.68,18.81H62Z"/><path class="cls-1" d="M136.23,307c3.61,0,8.84-.22,12.17,3.89a13.46,13.46,0,0,1,2.62,8.62v3.75a12.44,12.44,0,0,1-2.62,7.85,9.84,9.84,0,0,1-3.75,2.55l7.78,22.84h-7.36l-6.86-21.36H134v21.36H127V307ZM134,328.82h4a6,6,0,0,0,4.39-1.63c1.41-1.34,1.48-2.54,1.48-4.45V319.2a6.6,6.6,0,0,0-1.62-4.53c-1.42-1.41-3.12-1.27-4.6-1.27H134Z"/><path class="cls-1" d="M174.79,320.05c0-3.75.28-7.36,3.68-10.54a13.49,13.49,0,0,1,17.4,0c3.39,3.18,3.68,6.79,3.68,10.54v23.48c0,3.75-.29,7.36-3.68,10.54a13.49,13.49,0,0,1-17.4,0c-3.4-3.18-3.68-6.79-3.68-10.54ZM192.47,319a5.53,5.53,0,0,0-1.48-4.32,5.88,5.88,0,0,0-7.64,0,5.5,5.5,0,0,0-1.49,4.32v25.6a5.5,5.5,0,0,0,1.49,4.32,5.88,5.88,0,0,0,7.64,0,5.53,5.53,0,0,0,1.48-4.32Z"/><path class="cls-1" d="M240.72,318.28a6.11,6.11,0,0,0-.92-3.25,4.28,4.28,0,0,0-3.68-1.77,4.5,4.5,0,0,0-3.67,1.63c-1.14,1.41-1.21,3.18-1.21,4.88v24.4c0,1.62,0,3.11.92,4.38a4.29,4.29,0,0,0,3.61,1.77,4.94,4.94,0,0,0,4-1.7,6.63,6.63,0,0,0,1-4v-1.77h7.07v2.06c0,4.87-1.69,7.7-3,9.05-1.48,1.62-4.38,3.32-9.26,3.32-4.67,0-7.36-1.91-8.91-3.75-2.55-3-2.48-6.36-2.48-8.91V318.92c0-3.26.43-6.93,3.61-9.69a12.55,12.55,0,0,1,8.06-2.9,13,13,0,0,1,8.56,3.18,11.77,11.77,0,0,1,3.18,8.21v3.39h-6.86Z"/><path class="cls-1" d="M288.19,318.28a6.11,6.11,0,0,0-.92-3.25,4.28,4.28,0,0,0-3.68-1.77,4.5,4.5,0,0,0-3.67,1.63c-1.14,1.41-1.21,3.18-1.21,4.88v24.4c0,1.62,0,3.11.92,4.38a4.29,4.29,0,0,0,3.61,1.77,5,5,0,0,0,4-1.7,6.63,6.63,0,0,0,1-4v-1.77h7.07v2.06c0,4.87-1.7,7.7-3,9.05-1.48,1.62-4.38,3.32-9.26,3.32-4.67,0-7.36-1.91-8.92-3.75-2.54-3-2.47-6.36-2.47-8.91V318.92c0-3.26.42-6.93,3.61-9.69a12.55,12.55,0,0,1,8.06-2.9,13,13,0,0,1,8.56,3.18,11.77,11.77,0,0,1,3.18,8.21v3.39h-6.86Z"/><path class="cls-1" d="M334.81,356.54l-2.33-10.6h-9.06l-2.33,10.6H314L324.84,307h6.22l10.82,49.5Zm-7-35.71-3.68,18.81h7.5Z"/><path class="cls-1" d="M314.83,219.92c-5.23-6.78-9.83-9.93-17.19-14-3.37-1.88-5.78-4.92-9-6.84-4.6-2.77-9.77-2.9-14.11-6.67-9.64-8.37-19.83-23-34.59-18.48-.8.25-.46,1.52.35,1.27,16.26-5,26.95,15.39,38.89,21.82,12.15,6.55,25.74,12.26,34.49,23.59.51.66,1.65,0,1.13-.66Z"/><path class="cls-1" d="M248.92,178c-5-1.31-8.82-4.39-13.95-5.53-7.46-1.64-15.72-1.68-23.33-2.45-6.87-.7-13.8-1.78-20.71-1.6-3.79.09-7.67,1.13-11.46,1-3.48-.15-7.4-2.17-10.85-1.91-6.7.49-10,5.48-13.66,10.48a179.12,179.12,0,0,1-16.06,19c-5.11,5.21-10.35,14.21-15.84,18.28-.67.5,0,1.64.66,1.13,8.1-6,13.59-15.57,20.5-23a122.35,122.35,0,0,0,8.19-9.72c1.93-2.54,3.6-5.55,5.79-7.87,4.79-5.08,10.12-5.4,16.53-5.54,10.77-.25,21.27-.54,32.06.54,7.24.73,14.61,1.11,21.79,2.22,7.34,1.14,13.13,4.44,20,6.21a.65.65,0,0,0,.34-1.26Z"/><path class="cls-1" d="M160.79,170.24c-21.54,3.62-36.75-17.85-59.17-14.78-13.63,1.86-19.5,13.37-24.39,25-.32.78.94,1.12,1.27.35,4.68-11.14,9.9-21.71,23.26-23.81,10-1.58,20.59,1.61,29.28,6.37,10.56,5.79,17.6,10.24,30.1,8.14.83-.14.48-1.4-.35-1.27Z"/><path class="cls-1" d="M97.27,155.9c-14.4-1.88-28.14.08-37.43,11.63-9.78,12.16-19.32,24.34-29.15,36.59-.53.66.4,1.59.92.93,8-9.9,16.18-18.51,23.72-28.38a112.17,112.17,0,0,1,8.32-10.22c9.42-9.56,20.7-10.92,33.62-9.24.83.11.82-1.2,0-1.31Z"/><path class="cls-1" d="M250.18,173.13a210.21,210.21,0,0,1-14.53-55.76.67.67,0,0,0-.66-.66,55,55,0,0,1-24.11-4.11c-.41-.17-.81.26-.82.64-.3,7.4-18.07,2.88-22.86,2.69a.65.65,0,0,0-.65.65c.14,10.15-.17,20.44.46,30.56.54,8.55,4.07,14.32,6.87,22.4.28.79,1.54.45,1.26-.35-1.79-5.18-4.91-10.35-6.15-15.61-1.33-5.7-.79-12.3-.87-18.1,0-2.72-1.32-11.73-.2-14.17,3.26-7.11,17-2.78,22.4-2a.67.67,0,0,0,.83-.63c.24-6,7.28-1.76,11.43-1.08,9.37,1.54,11.69,1.34,13.3,11a205,205,0,0,0,13,44.88c.32.77,1.58.44,1.26-.34Z"/><path class="cls-1" d="M187.42,116.44l-.57-6.25a.69.69,0,0,0-.66-.65l-28.7-1.45a.68.68,0,0,0-.66.66c-1,8.92-16.58,5.3-23.22,5.18-9.43-.18-18.87-.19-28.3-.11a.66.66,0,0,0-.63.48,269.79,269.79,0,0,0-3.84,41.5.66.66,0,0,0,1.31,0c.09-6.16.3-12.3.81-18.45.75-9.13-.47-20,10.07-22.27,13.08-2.81,30.37.32,43.72.86a.69.69,0,0,0,.66-.66c1-9.18,27.89-7.66,28.7,1.16.08.83,1.39.84,1.31,0Z"/><path class="cls-1" d="M227.05,116q-.84-15.78-.93-31.57a.68.68,0,0,0-.66-.66l-53-.89a.67.67,0,0,0-.65.66,212.89,212.89,0,0,0-1.31,24.74.66.66,0,0,0,1.32,0c0-6.32-2.41-21.23,5.06-24,2.71-1,10.35.17,13.25.22l13.25.22c4.26.07,9.13-.58,13.26.22l4.41.08q5.24,2.15,3.84,7.31c1.63,7.14.47,16.37.86,23.68,0,.83,1.35.84,1.31,0Z"/><path class="cls-1" d="M228.2,85.28a73.34,73.34,0,0,1-26-21.72.66.66,0,0,0-.89-.23L169.67,83.56c-.71.46,0,1.59.66,1.13l17.56-11.24c3.93-2.51,10.29-8.86,15.34-6.33,3.84,1.92,7.43,8.12,11,11a77,77,0,0,0,13.31,8.34c.75.37,1.41-.76.66-1.14Z"/><path class="cls-1" d="M99.48,108c.15-2.68-.32-6.67.53-9.23,1.17-3.51,6.11-3.53,9.13-3.39,3.45.16,5.29.3,6.42,4.5a20.94,20.94,0,0,1,.28,4.19c.15,3.26.13,6.53,0,9.79,0,.84,1.27.84,1.31,0,.21-5.07.44-10.52-.43-15.54-.59-3.38-3.21-3.84-6.35-4.16-2.92-.3-9-.29-11.16,2.1-.69.75-.48,2.26-.54,3.17L98.17,108c0,.84,1.26.84,1.31,0Z"/><path class="cls-1" d="M116.29,96a77,77,0,0,1-5-20.58c-.47-4.21-.49-8.33-2.81-12a.67.67,0,0,0-1.2.16c-3.69,10.64-6.15,21.7-9,32.6a.65.65,0,0,0,1.26.35c1.37-5.3,2.72-10.61,4.09-15.91.73-2.81,1.44-5.62,2.24-8.41.56-2,.66-6.38,2.87-5.3,1.55.75,1.66,12.67,2,14.71A71.18,71.18,0,0,0,115,96.32c.31.77,1.58.44,1.27-.35Z"/><path class="cls-1" d="M115.87,95.56c-.12-2.7-.18-5.4-.14-8.1.08-5,1.26-7.69,6-10.13,6.69-3.49,12.06-6.36,19.85-5.4l-.33-1.22c-3.73,1.58-5.9,3.73-8.81,6.34-3.91,3.51-10.86,2.39-15.88,2.44a.66.66,0,0,0,0,1.31c3.15,0,6.3-.09,9.44-.22,1.73-.06,3.94.2,5.53-.69,1-.55,1.6-1.74,2.36-2.55a22.73,22.73,0,0,1,8-5.5c.68-.29.22-1.15-.33-1.22-8.87-1.09-16.15,2.52-23.59,7.2-5.43,3.41-3.62,12.31-3.39,17.74,0,.84,1.35.85,1.31,0Z"/><path class="cls-1" d="M140.47,71.64c-1,14.23-1.79,28.38-.14,42.59.09.83,1.4.84,1.31,0-1.65-14.21-.86-28.36.14-42.59.05-.84-1.26-.84-1.31,0Z"/><path class="cls-1" d="M130.25,79.31q.08,17.28,1,34.52c0,.84,1.36.84,1.32,0q-.93-17.25-1-34.52a.66.66,0,0,0-1.31,0Z"/><path class="cls-1" d="M152.72,114.35q-13.08-.61-26.15-1c-5.79-.18-11.95-1.33-17.3,1.24-.75.37-.09,1.5.67,1.14,6.37-3.07,16.3-1.09,23.17-.85q9.79.36,19.61.83c.84,0,.84-1.28,0-1.31Z"/><path class="cls-1" d="M155.27,114.21q-.81,28.28.28,56.51c0,.84,1.34.85,1.31,0q-1.1-28.25-.28-56.51a.66.66,0,0,0-1.31,0Z"/><path class="cls-1" d="M127.57,72.07c.16-7.69-2.12-23.3,2.37-29.6,1.39-1.95,7.09-6.56,9.82-5.72,5.19,1.6,3.81,8.54,3.93,12.62.29,10-.24,20.06.14,30.08.45,11.82,3.3,23.55,1.13,35.33-.15.82,1.11,1.17,1.27.34,2.19-11.9-.65-23.7-1.09-35.67-.55-15,.42-30-1.24-45a.66.66,0,0,0-1-.57,131.44,131.44,0,0,1-15.53,6.08.67.67,0,0,0-.48.63l-.65,31.52a.66.66,0,0,0,1.31,0Z"/><path class="cls-1" d="M143.8,35.51c5.95-.09,7.7.67,8.55,6.86.37,2.74-.25,6-.33,8.71-.19,6.78-.22,13.56-.16,20.35a.66.66,0,0,0,1.31,0c-.1-11.07,1.2-22.39.71-33.41-.25-5.58-4.82-3.9-10.08-3.82a.66.66,0,0,0,0,1.31Z"/><path class="cls-1" d="M152.77,33.67c-7.48-4.53-11.11-12.35-14.49-20.06a.66.66,0,0,0-1.13,0,176.18,176.18,0,0,0-11.4,26.9c-.27.8,1,1.14,1.26.35,1.81-5.48,3.83-10.87,6.17-16.14a72.37,72.37,0,0,1,3.32-7c1.52-2.59,1.19-2.15,2.29.24,3.11,6.72,6.86,12.94,13.32,16.86a.66.66,0,0,0,.66-1.14Z"/><path class="cls-1" d="M160.28,51.88C158.49,62,153.56,69.41,147.5,77.39c-.33.45.14.94.57,1,4.85.54,14.55,2.67,18.53-.93,2.51-2.27,4.39-8,6-10.93l7.77-14.41a.66.66,0,0,0-.57-1l-18,.44a.66.66,0,0,0,0,1.31L173,52.6c1.44,0,4-.71,4.75.47s-1.49,3.8-2.15,5l-6,11.08c-.94,1.75-1.69,4.09-3,5.54-1.93,2.19-4.45,2.73-7.42,3-1.72.14-9.11.66-9.44-1.15-.2-1.14,4.07-5.38,4.82-6.52a46.08,46.08,0,0,0,6.93-17.78c.15-.82-1.11-1.18-1.26-.35Z"/><path class="cls-1" d="M148.91,78c-.84,12.32,0,24.6.63,36.9.05.84,1.36.85,1.31,0-.68-12.3-1.47-24.58-.63-36.9.06-.84-1.25-.83-1.31,0Z"/><path class="cls-1" d="M166,76c-.41,10.65-1.14,21.34-.26,32,.07.83,1.38.84,1.31,0-.88-10.65-.15-21.34.26-32,0-.85-1.28-.84-1.31,0Z"/><path class="cls-1" d="M178.7,52.8a242.3,242.3,0,0,1-1.37,26.12c-.09.84,1.22.83,1.31,0A242.3,242.3,0,0,0,180,52.8a.66.66,0,0,0-1.31,0Z"/><path class="cls-1" d="M218.89,79.6l.15-18c0-2.39,1.27-8.48-.23-10.33-1.17-1.44-4.95-.74-6.28-.72-6,0-12,.43-18,1a.67.67,0,0,0-.65.66l-1.38,17c-.07.84,1.24.84,1.31,0l.69-8.48c.1-1.32-.1-5.18.51-6.35,1.76-3.37,12-2.4,15.27-2.47,2.87-.06,6.12-.35,7.51,2.95.88,2.08-.06,6.73-.08,9l-.13,15.79a.66.66,0,0,0,1.31,0Z"/><path class="cls-1" d="M218.41,50.37c-4.63-5-10.38-10.08-12-16.92a.66.66,0,0,0-1.2-.16q-5.22,9.43-11,18.5c-.46.71.67,1.37,1.13.66q5.83-9.06,11.05-18.5l-1.19-.16c1.69,7.1,7.55,12.34,12.35,17.5.57.62,1.5-.3.92-.92Z"/><path class="cls-1" d="M178.5,51.31c.23-3.22.38-6.44.39-9.67,0-1.42-.53-3.31.88-4.2.61-.39,4.09,0,4.83,0,3,0,6.68-.58,9.66-.06,1.81.31,2.79.19,3.47,2.36.49,1.57.25,3.79.35,5.44.06.83,1.37.84,1.31,0-.15-2.34.93-8.23-1.83-9.12-2.29-.74-6.53,0-8.93,0l-10.47.07a.66.66,0,0,0-.65.65c.13,4.85,0,9.68-.32,14.52-.06.84,1.26.84,1.31,0Z"/><path class="cls-1" d="M165.22,51.84c.07-1.2-.14-3.45.54-4.42.8-1.15,2.69-.73,3.89-.73,2.68,0,5.36.06,8,.18.84,0,.84-1.27,0-1.31-2.18-.09-4.35-.16-6.53-.18-1.49,0-4.28-.51-5.7.08-1.69.71-1.46,4.86-1.55,6.38,0,.84,1.26.84,1.31,0Z"/><path class="cls-1" d="M166.15,46.45c1.56-3.59,4.47-6.23,6.09-9.74l-1,.14c1.19,1.38,1.61,3.67,2.46,5.3a15.38,15.38,0,0,0,3,4c.61.58,1.54-.34.93-.92a15.86,15.86,0,0,1-3.59-5.4,14.21,14.21,0,0,0-1.89-3.92.66.66,0,0,0-1,.13c-1.62,3.51-4.53,6.14-6.09,9.74-.33.77.8,1.43,1.13.66Z"/><path class="cls-1" d="M198.81,36.72c-4.11-10.89-7.26-22.31-10.42-33.5-.16-.59-1.14-.66-1.26,0a189.35,189.35,0,0,1-9.38,33.38c-.31.79,1,1.13,1.26.35C180,34.43,188.28,6,187.82,6c.63,0,4.88,16.12,5.2,17.15,1.46,4.64,2.81,9.33,4.53,13.89.29.78,1.56.44,1.26-.35Z"/><path class="cls-1" d="M209.74,118.36c-1.31,11.32,2,21.57,5.42,32.25,1.24,3.87,2.12,8.2,3.9,11.84,1.52,3.1,6.13,6.24,7.14,9,.29.79,1.56.45,1.27-.34-.82-2.21-1.2-1.66-2.47-3.51a55.73,55.73,0,0,1-8.09-15.79c-3.54-11-7.22-21.72-5.86-33.42.1-.84-1.21-.83-1.31,0Z"/><path class="cls-1" d="M91.34,116.49c-2,6.11-2.5,11.57-3,17.92a98.81,98.81,0,0,1-4.69,21.48c-.25.81,1,1.15,1.27.35A107.35,107.35,0,0,0,89,140.18c1.18-7.92,1-15.61,3.56-23.34.27-.81-1-1.15-1.26-.35Z"/><path class="cls-1" d="M92.71,116.59c1.18-1.92,3.93-1.54,5.92-1.49,1.68,0,4.43-.23,5.82.61.3.18,1.1,0,1.2.08-1.84-1.11-4.2-.85-6.27-.9-2.49-.06-6.36-1-7.91,1.56,0,0,1.09.39,1.24.14Z"/><path class="cls-1" d="M92.13,118.31c2.22-4.14,8.39-2.68,12.25-2.47.71,0,.33-1.11-.23-1.14-4.1-.23-10.5-1.71-12.9,2.75-.26.5.58,1.41.88.86Z"/><path class="cls-1" d="M92.78,116.07c2.39-2.83,5.53-5.71,7.27-9l-1.44.32c.91,1.49,1.78,3,2.56,4.55a6.86,6.86,0,0,0,2.34,3.13c.33.22,1.54-.37,1.37-.48-2.24-1.47-3.43-5.32-4.82-7.58-.19-.31-1.3.06-1.43.32-1.75,3.28-4.89,6.15-7.28,9a2.15,2.15,0,0,0,1.43-.26Z"/></g></svg>